PathFileType	4	(X/Y/Z)	D:\TRACE\spotREDO_2-26-24\spot_baseline_1-platform.trc
DataRate	CameraRate	NumFrames	NumMarkers	Units	OrigDataRate	OrigDataStartFrame	OrigNumFrames
100.00	100.00	      69	5	mm	100.00	876	      7000
Frame#	Time	Left_Front			Right_Front			Left_Aft			Right_Aft			Post			
		X1	Y1	Z1	X2	Y2	Z2	X3	Y3	Z3	X4	Y4	Z4	X5	Y5	Z5	

876	8.750	-696.80731	-3.96945	-575.66919	718.02649	5.02363	-491.03043	-768.14630	4.80872	643.57996	801.26135	11.40215	647.80701	4.49475	741.37927	-982.95538	
877	8.760	-696.79547	-3.98956	-575.68756	718.09418	4.86758	-490.89020	-768.16284	4.75676	643.55481	801.20831	11.09314	647.46332	4.46213	741.35095	-982.91705	
878	8.770	-696.84259	-3.98155	-575.66388	718.05597	4.83654	-490.89090	-768.15576	4.73582	643.56458	801.19708	11.36365	647.78955	4.41994	741.41095	-982.86707	
879	8.780	-696.80219	-3.99793	-575.67157	718.06329	4.85030	-490.90607	-768.15717	4.72701	643.58636	801.18182	11.36466	647.81769	4.40870	741.39813	-982.84058	
880	8.790	-696.83118	-3.93475	-575.66479	718.10016	4.89534	-490.89105	-768.14508	4.76028	643.56909	801.27228	11.41841	647.83667	4.39404	741.41003	-982.79376	
881	8.800	-696.79480	-3.97526	-575.66870	718.12842	4.90125	-490.87772	-768.12653	4.80014	643.61273	801.33942	11.08992	647.46222	4.45526	741.41602	-982.78046	
882	8.810	-696.84528	-3.93925	-575.68475	718.05261	5.00221	-490.98373	-768.14771	4.75468	643.56573	801.22705	11.33604	647.81451	4.48966	741.35175	-982.84827	
883	8.820	-696.84796	-3.96952	-575.66504	717.97540	4.99014	-491.02380	-768.17175	4.72699	643.58899	801.18121	11.34937	647.80280	4.44625	741.35553	-982.83417	
884	8.830	-696.81281	-3.99813	-575.67108	718.04663	4.85655	-490.89310	-768.14911	4.71053	643.58087	801.19580	11.37554	647.81342	4.41877	741.32959	-982.85809	
885	8.840	-696.85907	-3.94965	-575.67535	718.04510	4.83153	-490.89996	-768.12201	4.71298	643.55762	801.19934	11.36768	647.85156	4.44908	741.33502	-982.91742	
886	8.850	-696.86096	-3.91119	-575.68481	718.11743	4.93429	-490.84894	-768.12354	4.76536	643.56964	801.25818	11.37568	647.79761	4.55170	741.32715	-982.99316	
887	8.860	-696.86981	-3.90055	-575.68323	718.08380	4.85133	-490.87234	-768.03058	4.93418	643.68439	801.21942	11.36797	647.80310	4.52274	741.33502	-983.01935	
888	8.870	-696.85175	-3.92883	-575.70111	717.99426	4.98735	-491.01636	-768.16443	4.75747	643.55994	801.27899	11.37614	647.80597	4.52157	741.33179	-983.02344	
889	8.880	-696.87177	-3.93237	-575.67163	718.00195	4.95691	-491.02777	-768.11896	4.72482	643.61121	801.25989	11.13713	647.56879	4.46965	741.33490	-983.00500	
890	8.890	-696.87756	-3.92275	-575.67902	718.07831	4.82347	-490.90704	-768.10577	4.72655	643.61261	801.28430	11.38283	647.82745	4.50590	741.33295	-982.96124	
891	8.900	-696.85547	-3.88801	-575.67487	718.11407	4.89220	-490.91534	-768.15369	4.73502	643.56970	801.25891	11.37259	647.80621	4.51567	741.35071	-982.91193	
892	8.910	-696.88293	-3.86589	-575.66260	718.08441	4.84836	-490.88007	-768.17755	4.76689	643.55084	801.27887	11.09771	647.46216	4.45368	741.39032	-982.82910	
893	8.920	-696.89862	-3.86910	-575.69940	718.00366	5.05897	-491.01569	-768.15259	4.76293	643.58270	801.16772	11.37367	647.80096	4.42894	741.39569	-982.82709	
894	8.930	-696.89923	-3.90540	-575.66919	718.06805	4.80397	-490.87906	-768.16357	4.75902	643.59113	801.20398	11.36142	647.80518	4.38525	741.40057	-982.78687	
895	8.940	-696.83984	-3.93430	-575.69263	718.08722	4.81207	-490.87244	-768.14746	4.72281	643.58624	801.28479	11.36564	647.82104	4.44792	741.38464	-982.76935	
896	8.950	-696.89386	-3.88001	-575.65295	718.01215	4.97306	-490.98227	-768.20264	4.84629	643.56531	801.30804	11.17172	647.55536	4.43898	741.36707	-982.83441	
897	8.960	-696.84595	-3.91698	-575.67859	718.12750	4.85309	-490.86935	-768.24493	4.93644	643.51147	801.40564	11.10840	647.48273	4.51706	741.36407	-982.88037	
898	8.970	-696.92334	-3.84554	-575.63470	718.11414	4.90189	-490.85480	-768.37097	5.05228	643.57129	801.27698	11.40008	647.81799	4.45273	741.39734	-982.90649	
899	8.980	-696.86902	-3.90963	-575.68359	718.16577	4.88501	-490.87878	-768.11285	4.77015	643.44501	801.23218	11.36435	647.79968	4.51796	741.34698	-982.97858	
900	8.990	-696.91913	-3.87595	-575.66156	717.93982	5.02127	-491.01007	-768.11780	4.78623	643.45764	801.11737	11.30967	647.81189	4.48354	741.34369	-982.99561	
901	9.000	-696.87671	-3.87444	-575.67859	717.94879	4.97481	-491.02985	-768.11365	4.75558	643.43884	801.22345	11.38258	647.80878	4.53487	741.32855	-983.01385	
902	9.010	-696.89343	-3.90916	-575.68597	718.07050	4.82576	-490.87512	-767.99127	4.60864	643.48322	801.22943	11.37136	647.79810	4.53344	741.34210	-982.96722	
903	9.020	-696.88226	-3.91542	-575.68658	718.07281	4.83630	-490.92032	-768.11792	4.76317	643.53387	801.26001	11.35133	647.80603	4.52370	741.35162	-982.94391	
904	9.030	-696.87317	-3.93034	-575.69360	717.99011	4.98857	-491.00296	-768.13989	4.75935	643.54230	801.24249	11.35530	647.79407	4.50519	741.31561	-982.95105	
905	9.040	-696.85834	-3.92175	-575.67401	718.08313	4.82570	-490.86755	-768.12305	4.75771	643.58643	801.32367	11.36958	647.77985	4.46018	741.35712	-982.86713	
906	9.050	-696.88519	-3.89437	-575.66803	718.06763	4.82711	-490.88425	-768.12018	4.73326	643.57147	801.20441	11.35593	647.80127	4.46754	741.35217	-982.87024	
907	9.060	-696.87274	-3.89881	-575.67706	718.03412	4.98674	-491.00443	-768.14807	4.78308	643.60602	801.23828	11.32974	647.79987	4.47023	741.34735	-982.87634	
908	9.070	-696.89050	-3.90318	-575.68237	718.04742	4.89236	-490.92090	-768.15222	4.76753	643.61566	801.20343	11.36212	647.80383	4.43821	741.40033	-982.81915	
909	9.080	-696.87854	-3.88569	-575.68652	718.09674	4.84213	-490.89240	-768.10468	4.75386	643.57281	801.19708	11.35998	647.79218	4.41246	741.39105	-982.80402	
910	9.090	-696.89386	-3.91744	-575.66980	718.09436	4.86635	-490.89554	-768.17670	4.77706	643.58673	801.31439	11.21624	647.56470	4.44497	741.35352	-982.84216	
911	9.100	-696.86072	-3.91002	-575.65759	717.99493	4.97661	-490.99918	-768.13519	4.74532	643.59723	801.21912	11.35098	647.82227	4.49243	741.35425	-982.87213	
912	9.110	-696.89246	-3.90347	-575.67975	718.07672	4.81664	-490.88327	-768.12866	4.76564	643.58459	801.33099	11.15217	647.54327	4.50972	741.32239	-982.91687	
913	9.120	-696.89722	-3.89620	-575.65881	718.03662	4.79433	-490.89459	-768.13458	4.77564	643.58276	801.25702	11.36738	647.80957	4.47954	741.35028	-982.93939	
914	9.130	-696.88483	-3.89020	-575.68829	718.10547	4.88040	-490.87076	-768.15521	4.78179	643.56348	801.24646	11.42372	647.82727	4.48621	741.35718	-982.93811	
915	9.140	-696.88605	-3.87974	-575.67126	718.10596	4.90223	-490.88104	-768.13538	4.81379	643.59845	801.31018	11.18838	647.52789	4.48219	741.37787	-982.97125	
916	9.150	-696.89630	-3.88208	-575.68146	718.05170	4.90954	-490.87149	-768.13934	4.78058	643.58606	801.24884	11.11448	647.51886	4.46832	741.34167	-982.98254	
917	9.160	-696.85748	-3.88399	-575.66748	717.98657	5.03692	-491.03830	-768.14282	4.72946	643.56323	801.25629	11.12851	647.54578	4.45776	741.34631	-982.98810	
918	9.170	-696.91943	-3.88254	-575.68707	718.06805	4.84744	-490.90698	-768.12170	4.75594	643.59424	801.18365	11.32346	647.81195	4.49526	741.35590	-982.93250	
919	9.180	-696.88080	-3.89256	-575.67810	717.99152	4.93622	-491.01349	-768.13818	4.72478	643.56628	801.28076	11.38897	647.84204	4.43569	741.37231	-982.86951	
920	9.190	-696.87000	-3.92158	-575.66852	718.10626	4.87480	-490.86581	-768.16138	4.76042	643.53766	801.42688	11.15134	647.52911	4.48562	741.37311	-982.83337	
921	9.200	-696.84473	-3.93528	-575.67126	718.10944	4.84119	-490.87543	-768.13995	4.77062	643.58893	801.27649	11.12515	647.52551	4.46782	741.37183	-982.84271	
922	9.210	-696.87146	-3.92579	-575.66864	718.04468	4.81828	-490.91766	-768.14795	4.75909	643.60620	801.16052	11.09647	647.52454	4.43873	741.38715	-982.79926	
923	9.220	-696.87561	-3.87513	-575.67572	718.04041	4.83047	-490.89484	-768.14453	4.74656	643.58118	801.18201	11.01005	647.47284	4.42775	741.37207	-982.84039	
924	9.230	-696.89905	-3.88298	-575.68225	718.05707	4.84006	-490.91638	-768.15082	4.75522	643.58209	801.29071	11.12306	647.51483	4.41488	741.38470	-982.85382	
925	9.240	-696.85156	-3.93624	-575.67047	718.07776	4.85173	-490.90598	-768.15192	4.74856	643.55396	801.30994	11.12756	647.51752	4.41195	741.38782	-982.87402	
926	9.250	-696.86383	-3.92072	-575.69263	718.12146	4.86342	-490.89053	-768.14313	4.77288	643.54926	801.24323	11.34408	647.79224	4.53011	741.32806	-982.91809	
927	9.260	-696.86945	-3.91252	-575.66217	718.11969	4.86831	-490.88498	-768.14661	4.78468	643.59412	801.26990	11.37153	647.81348	4.51581	741.32263	-982.95044	
928	9.270	-696.85583	-3.91095	-575.66064	718.07904	4.81704	-490.88785	-768.13580	4.78111	643.59155	801.34869	11.08656	647.48938	4.50407	741.35779	-982.92902	
929	9.280	-696.87042	-3.88368	-575.67365	718.05737	4.79972	-490.93295	-768.11493	4.73566	643.59644	801.24310	11.36432	647.80249	4.47855	741.37775	-982.96161	
930	9.290	-696.93439	-3.87110	-575.64441	718.04443	4.81591	-490.89838	-768.15717	4.73020	643.57520	801.22870	11.37833	647.78406	4.46881	741.36230	-982.97467	
931	9.300	-696.89325	-3.87273	-575.68152	718.05701	4.87186	-490.92963	-768.13007	4.76171	643.56537	801.23346	11.37445	647.79456	4.49389	741.34100	-982.96429	
932	9.310	-696.86670	-3.91586	-575.70758	718.12775	4.85992	-490.89764	-768.15662	4.80821	643.60431	801.26941	11.13029	647.54993	4.46970	741.35986	-982.90637	
933	9.320	-696.88831	-3.87776	-575.64764	718.09778	4.86045	-490.90628	-768.15601	4.77044	643.59180	801.29303	11.40689	647.82837	4.50916	741.34149	-982.92523	
934	9.330	-696.89099	-3.91600	-575.65381	718.06586	4.82089	-490.91425	-768.12531	4.74912	643.57037	801.34680	11.12046	647.51617	4.47312	741.36395	-982.88544	
935	9.340	-696.90515	-3.88341	-575.65033	718.10687	4.81706	-490.91501	-768.15460	4.74691	643.58380	801.25067	11.34804	647.81885	4.42773	741.38190	-982.84387	
936	9.350	-696.93695	-3.89766	-575.66687	718.07843	4.84862	-490.86954	-768.15570	4.75873	643.56116	801.28369	11.17785	647.50134	4.46584	741.38007	-982.83441	
937	9.360	-696.99646	-3.90948	-575.65320	718.09290	4.86721	-490.88516	-768.13428	4.76877	643.59375	801.25317	11.36697	647.83954	4.49727	741.35376	-982.86981	
938	9.370	-697.00287	-3.87054	-575.64966	718.10217	4.88007	-490.86966	-768.08356	4.74661	643.58087	801.18433	11.11586	647.54407	4.46775	741.38837	-982.85730	
939	9.380	-697.06946	-3.86186	-575.64252	718.09534	4.84484	-490.89536	-768.17334	4.75861	643.56488	801.21161	11.36979	647.81403	4.44996	741.37164	-982.90363	
940	9.390	-696.94147	-3.87162	-575.68042	718.05933	4.83407	-490.89337	-768.11987	4.76495	643.57538	801.21802	11.35017	647.80286	4.45731	741.37378	-982.92596	
941	9.400	-697.00824	-3.85296	-575.66437	718.09021	4.82705	-490.87891	-768.14435	4.75465	643.57281	801.32550	11.17489	647.49860	4.46455	741.34875	-982.96106	
942	9.410	-696.94562	-3.87370	-575.69556	718.03394	5.00084	-490.99414	-768.12024	4.74339	643.57672	801.36230	11.09126	647.48187	4.52205	741.31146	-982.95862	
943	9.420	-696.95953	-3.83796	-575.66913	718.11798	4.84272	-490.87405	-768.14685	4.74844	643.60950	801.27252	11.16648	647.56256	4.54364	741.30225	-982.97931	
944	9.430	-696.96570	-3.83858	-575.67542	718.02008	5.02495	-490.98010	-768.14990	4.75742	643.61407	801.23871	11.04591	647.53619	4.50182	741.34821	-982.96088	
